# xmcd
#
# Track frame offsets:
#	150
#	17277
#	36055
#	52255
#	69875
#	87622
#	105255
#	123410
#	138600
#	153680
#	167605
#	182005
#
# Disc length: 2605 seconds
#
# Revision: 1
# Processed by: cddbd v1.5.2PL0 Copyright (c) Steve Scherf et al.
# Submitted via: audiograbber 1.83.01
#
DISCID=9a0a2b0c
DTITLE=REGINALDO ROSSI - LUZ DO SOL
DYEAR=1900
DGENRE=BREGA
TTITLE0=Sabor de Café
TTITLE1=I Love com br
TTITLE2=Não Dá pra Voltar
TTITLE3=Luz do Sol
TTITLE4=Show de Mulher
TTITLE5=Vida Bandida
TTITLE6=Como Eu Te Quero
TTITLE7=Por Todas as Marias
TTITLE8=Como é que Posso Esquecer?
TTITLE9=Vontade de Acertar
TTITLE10=Hum-gracinha
TTITLE11=José
EXTD=
EXTT0=
EXTT1=
EXTT2=
EXTT3=
EXTT4=
EXTT5=
EXTT6=
EXTT7=
EXTT8=
EXTT9=
EXTT10=
EXTT11=
PLAYORDER=
